<svg width="512" height="512" viewBox="0 0 512 512" fill="none" xmlns="http://www.w3.org/2000/svg">
<g clip-path="url(#clip0_28_2)">
<path d="M385.908 133.515L415.224 246.643L349.172 263.76L319.856 150.632C304.753 142.057 292.358 126.121 287.135 105.967C277.997 70.7035 294.246 35.9862 323.43 28.4234C352.614 20.8607 383.68 43.3163 392.818 78.5801C398.041 98.7338 394.944 118.685 385.908 133.515Z" fill="#FFB8B8"/>
<path d="M122.718 44.8767C145.2 37.9033 242.939 11.9951 256.051 31.5434C269.164 51.0916 348.051 40.8767 315.107 151.513C295.387 217.738 315.76 290.179 299.056 357.227C297.37 363.994 295.292 371.184 289.929 375.641C280.836 383.198 267.251 379.487 256.152 375.412C241.534 370.044 224.886 362.483 221.383 347.31C218.202 333.531 175.273 319.566 182.718 307.543C215.518 254.578 269.752 184.788 239.984 130.062C233.288 117.753 224.957 105.743 223.156 91.8476C221.354 77.9519 229.176 61.4392 243.09 59.7839" fill="#090814"/>
<path d="M229.539 361.148L351.396 340.214L333.945 197.158L415.965 187.758L466.552 374.086L272.616 470.686" fill="white"/>
<path d="M231.733 340.503H53.5649C53.5649 340.503 -25.6008 349.825 13.0659 511.158C51.7326 672.492 107.733 771.158 107.733 771.158L347.733 741.825L324.399 563.825C324.399 563.825 353.733 402.492 308.399 379.825C263.066 357.158 231.733 340.503 231.733 340.503Z" fill="white"/>
<path d="M83.7325 188.637C83.7325 129.358 131.787 81.3036 191.066 81.3036C250.344 81.3036 298.399 129.358 298.399 188.637C298.399 236.712 266.79 277.399 223.223 291.064L202.473 428.192L96.6958 340.044C96.6958 340.044 119.547 310.938 131.802 278.118C102.838 258.897 83.7325 226.004 83.7325 188.637Z" fill="#FFB8B8"/>
<path d="M269.976 61.7878C270.768 50.1949 264.509 38.9671 255.811 31.2615C247.114 23.556 236.197 18.8615 225.286 14.8659C184.617 -0.0266635 138.683 -6.7123 98.3456 9.05696C46.6111 29.282 14.175 83.1847 4.31398 137.85C-5.54707 192.515 3.37961 248.62 12.3068 303.445C14.4736 316.752 17.6113 331.616 28.9097 338.973C36.1004 343.655 45.1488 344.206 53.7293 344.272C93.3318 344.579 193.646 466.808 230.718 452.877C210.145 401.97 146.556 214.845 161.896 162.124C167.374 143.297 175.75 124.266 191.334 112.366C205.331 101.677 223.285 98.09 239.799 91.9692C256.312 85.8484 273.227 75.1751 277.627 58.122C275.025 57.9667 272.423 57.8114 269.822 57.6561" fill="#090814"/>
<path d="M488.769 491.012H404.442C391.947 491.012 381.781 480.846 381.781 468.351V243.538C381.781 231.043 391.947 220.877 404.442 220.877H488.769C501.264 220.877 511.43 231.043 511.43 243.538V468.351C511.43 480.846 501.264 491.012 488.769 491.012Z" fill="#222222"/>
<path d="M407.323 267.705C415.446 267.705 422.03 261.121 422.03 252.999C422.03 244.877 415.446 238.292 407.323 238.292C399.201 238.292 392.617 244.877 392.617 252.999C392.617 261.121 399.201 267.705 407.323 267.705Z" fill="#090814"/>
<path d="M439.833 285.508C447.955 285.508 454.539 278.924 454.539 270.801C454.539 262.679 447.955 256.095 439.833 256.095C431.71 256.095 425.126 262.679 425.126 270.801C425.126 278.924 431.71 285.508 439.833 285.508Z" fill="#090814"/>
<path d="M407.323 304.085C415.446 304.085 422.03 297.5 422.03 289.378C422.03 281.256 415.446 274.672 407.323 274.672C399.201 274.672 392.617 281.256 392.617 289.378C392.617 297.5 399.201 304.085 407.323 304.085Z" fill="#090814"/>
<path d="M396.121 490.404L285.202 555.324L247.297 490.562L358.216 425.641C362.764 407.092 375.912 389.2 395.672 377.634C430.247 357.398 471.852 364.189 488.6 392.803C505.347 421.417 490.895 461.017 456.32 481.254C436.56 492.819 414.521 495.522 396.121 490.404Z" fill="#FFB8B8"/>
<path d="M108.399 393.158L167.066 515.825L313.208 454.492L347.733 538.463L165.733 647.825L5.40219 471.563" fill="white"/>
<path d="M165.607 648.678L165.239 648.274L4.9082 472.012L5.89518 471.114L165.857 646.972L346.898 538.187L312.847 455.366L166.738 516.685L166.464 516.112L107.798 393.446L109.001 392.87L167.394 514.964L313.568 453.616L313.825 454.237L348.567 538.739L348.076 539.034L165.607 648.678Z" fill="#222222"/>
</g>
<defs>
<clipPath id="clip0_28_2">
<rect width="512" height="512" fill="white"/>
</clipPath>
</defs>
</svg>
